<svg width="321" height="238" viewBox="0 0 321 238" fill="none" xmlns="http://www.w3.org/2000/svg">
<g clip-path="url(#clip0_84_355)">
<path d="M291.213 164.378C284.614 225.698 247.464 213.999 171.086 215.176C96.572 216.352 40.7552 243.277 9.16536 187.202C-23.5854 129.601 36.1114 0.667236 127.673 0.667236C237.168 0.667236 305.816 28.8318 291.213 164.378Z" fill="#DAE1F3"/>
<path d="M241.231 41.9607H56.3056C51.6487 41.9607 47.8735 45.8888 47.8735 50.7343V171.403C47.8735 176.249 51.6487 180.177 56.3056 180.177H241.231C245.888 180.177 249.663 176.249 249.663 171.403V50.7343C249.663 45.8888 245.888 41.9607 241.231 41.9607Z" fill="#4B5180"/>
<path d="M241.353 41.9607H56.2751C55.1588 41.9605 54.0537 42.1918 53.0243 42.641C51.9949 43.0902 51.0619 43.7484 50.2797 44.5771C49.4975 45.4057 48.8818 46.3883 48.4687 47.4673C48.0556 48.5463 47.8533 49.7002 47.8736 50.8615V67.1371H249.663V50.8615C249.68 49.7093 249.477 48.565 249.068 47.4941C248.66 46.4232 248.052 45.4466 247.28 44.6201C246.509 43.7935 245.588 43.1333 244.571 42.677C243.554 42.2207 242.461 41.9773 241.353 41.9607Z" fill="#6F87CF"/>
<path d="M68.2816 54.5488C68.2815 55.4129 68.0345 56.2573 67.5718 56.9748C67.1091 57.6923 66.4518 58.2504 65.6834 58.5781C64.9151 58.9057 64.0704 58.9882 63.2569 58.8149C62.4433 58.6417 61.6977 58.2205 61.1149 57.6051C60.532 56.9897 60.1383 56.2078 59.9838 55.3588C59.8292 54.5099 59.9209 53.6323 60.2471 52.8377C60.5732 52.0431 61.1192 51.3675 61.8155 50.8967C62.5118 50.4259 63.3269 50.1812 64.1572 50.1938C65.2567 50.2105 66.3056 50.6767 67.0774 51.4916C67.8492 52.3066 68.2818 53.4047 68.2816 54.5488Z" fill="white"/>
<path d="M78.8523 54.5489C78.8523 55.4102 78.6068 56.2522 78.1469 56.9684C77.687 57.6846 77.0333 58.2428 76.2685 58.5724C75.5037 58.902 74.6622 58.9882 73.8503 58.8202C73.0384 58.6522 72.2926 58.2374 71.7072 57.6283C71.1219 57.0193 70.7232 56.2433 70.5617 55.3985C70.4002 54.5537 70.4831 53.678 70.7999 52.8823C71.1167 52.0865 71.6532 51.4063 72.3415 50.9278C73.0298 50.4493 73.839 50.1938 74.6668 50.1938C75.2165 50.1938 75.7607 50.3065 76.2685 50.5254C76.7763 50.7442 77.2378 51.065 77.6264 51.4694C78.0151 51.8738 78.3234 52.3539 78.5337 52.8823C78.7441 53.4106 78.8523 53.977 78.8523 54.5489Z" fill="white"/>
<path d="M89.0564 54.5489C89.0564 55.4102 88.8109 56.2522 88.351 56.9684C87.8911 57.6846 87.2374 58.2428 86.4726 58.5724C85.7078 58.902 84.8663 58.9882 84.0544 58.8202C83.2425 58.6522 82.4967 58.2374 81.9113 57.6283C81.326 57.0193 80.9273 56.2433 80.7659 55.3985C80.6044 54.5537 80.6872 53.678 81.004 52.8823C81.3208 52.0865 81.8573 51.4063 82.5456 50.9278C83.2339 50.4493 84.0431 50.1938 84.8709 50.1938C85.9785 50.2022 87.0385 50.6637 87.8217 51.4786C88.6049 52.2935 89.0484 53.3964 89.0564 54.5489Z" fill="white"/>
<path d="M312.873 62.3689H134.73C130.242 62.3689 126.604 66.1547 126.604 70.8246V187.075C126.604 191.745 130.242 195.531 134.73 195.531H312.873C317.362 195.531 321 191.745 321 187.075V70.8246C321 66.1547 317.362 62.3689 312.873 62.3689Z" fill="#E3E3FF"/>
<path d="M134.7 62.3689H312.873C315.029 62.3689 317.096 63.2598 318.62 64.8455C320.144 66.4313 321 68.582 321 70.8246V86.4963H126.604V70.8246C126.604 68.5875 127.456 66.4416 128.973 64.8567C130.49 63.2719 132.55 62.3773 134.7 62.3689Z" fill="#D0D0F4"/>
<path d="M301.325 74.5121C301.326 75.3351 301.559 76.1397 301.996 76.8259C302.432 77.5121 303.053 78.0495 303.781 78.3712C304.509 78.693 305.312 78.7848 306.09 78.6354C306.868 78.4859 307.586 78.1018 308.156 77.5308C308.726 76.9597 309.121 76.227 309.294 75.4238C309.466 74.6206 309.408 73.7823 309.126 73.0134C308.844 72.2444 308.351 71.5787 307.708 71.0991C307.065 70.6195 306.301 70.3472 305.511 70.316C304.968 70.2946 304.428 70.3873 303.92 70.5886C303.413 70.7899 302.951 71.0956 302.56 71.4874C302.169 71.8792 301.858 72.349 301.646 72.8687C301.434 73.3885 301.325 73.9474 301.325 74.5121Z" fill="white"/>
<path d="M291.152 74.512C291.152 75.3419 291.388 76.1532 291.831 76.8432C292.274 77.5332 292.904 78.0711 293.641 78.3887C294.378 78.7062 295.189 78.7893 295.971 78.6274C296.753 78.4655 297.472 78.0659 298.036 77.4791C298.6 76.8922 298.984 76.1446 299.14 75.3306C299.295 74.5166 299.215 73.673 298.91 72.9062C298.605 72.1395 298.088 71.4842 297.425 71.0231C296.762 70.562 295.982 70.3159 295.184 70.3159C294.115 70.3159 293.089 70.758 292.333 71.5449C291.576 72.3318 291.152 73.3991 291.152 74.512Z" fill="white"/>
<path d="M281.314 74.512C281.314 75.3419 281.551 76.1532 281.994 76.8432C282.437 77.5332 283.067 78.0711 283.804 78.3887C284.541 78.7062 285.351 78.7893 286.134 78.6274C286.916 78.4655 287.635 78.0659 288.199 77.4791C288.763 76.8922 289.147 76.1446 289.302 75.3306C289.458 74.5166 289.378 73.673 289.073 72.9062C288.767 72.1395 288.251 71.4842 287.587 71.0231C286.924 70.562 286.145 70.3159 285.347 70.3159C284.277 70.3159 283.252 70.758 282.495 71.5449C281.739 72.3318 281.314 73.3991 281.314 74.512Z" fill="white"/>
<path d="M306.061 221.915C306.061 230.784 248.258 238 176.921 238C105.584 238 47.7819 230.784 47.7819 221.915C47.7819 213.046 105.584 205.798 176.921 205.798C248.258 205.798 306.061 212.982 306.061 221.915Z" fill="#D6D6D6"/>
<path d="M250.855 208.755C250.625 213.804 248.479 218.551 244.887 221.955C241.295 225.358 236.552 227.139 231.699 226.906H132.042C129.636 227.025 127.232 226.651 124.966 225.803C122.7 224.956 120.616 223.652 118.834 221.966C117.053 220.281 115.608 218.246 114.582 215.979C113.556 213.712 112.969 211.257 112.856 208.755V18.0239C113.116 12.9917 115.281 8.27137 118.876 4.89416C122.471 1.51696 127.204 -0.242592 132.042 -0.000102848H231.699C236.552 -0.233214 241.295 1.54753 244.887 4.95094C248.479 8.35435 250.625 13.1021 250.855 18.1511V208.755Z" fill="#3A416D"/>
<path d="M241.017 27.8465C240.811 23.5174 238.967 19.449 235.887 16.5303C232.807 13.6117 228.743 12.0801 224.581 12.2702H139.038C134.876 12.0801 130.811 13.6117 127.731 16.5303C124.652 19.449 122.807 23.5174 122.601 27.8465V191.207C122.601 191.43 122.601 191.684 122.601 191.907H240.926C240.941 191.674 240.941 191.44 240.926 191.207L241.017 27.8465Z" fill="white"/>
<path d="M193.877 210.471C194.056 212.707 193.58 214.947 192.514 216.897C191.447 218.846 189.839 220.415 187.9 221.397C185.961 222.379 183.782 222.727 181.649 222.398C179.516 222.068 177.529 221.075 175.948 219.549C174.368 218.023 173.267 216.035 172.792 213.847C172.316 211.659 172.487 209.372 173.283 207.287C174.079 205.201 175.462 203.415 177.25 202.163C179.039 200.91 181.15 200.249 183.306 200.267C186.008 200.164 188.639 201.18 190.621 203.094C192.602 205.007 193.774 207.66 193.877 210.471Z" fill="white"/>
<path d="M231.424 78.4855C231.589 71.6046 230.428 64.7591 228.011 58.3521C225.593 51.945 221.968 46.1061 217.349 41.179C212.73 36.252 207.21 32.3364 201.114 29.663C195.019 26.9896 188.47 25.6123 181.855 25.6123C175.24 25.6123 168.692 26.9896 162.596 29.663C156.5 32.3364 150.981 36.252 146.361 41.179C141.742 46.1061 138.117 51.945 135.7 58.3521C133.283 64.7591 132.122 71.6046 132.286 78.4855C132.286 93.9665 143.559 104.234 149.273 117.331C153.641 127.281 153.733 161.072 153.733 161.072H210.008C210.008 161.072 210.008 127.281 214.438 117.331C220.151 104.234 231.424 93.9665 231.424 78.4855Z" fill="#FFB025"/>
<path d="M219.754 75.434C219.754 83.3746 217.491 91.137 213.251 97.7394C209.011 104.342 202.985 109.488 195.934 112.527C188.883 115.565 181.125 116.36 173.64 114.811C166.155 113.262 159.28 109.438 153.883 103.823C148.487 98.2085 144.812 91.0547 143.323 83.2666C141.834 75.4785 142.599 67.4059 145.519 60.0697C148.439 52.7334 153.385 46.4631 159.731 42.0515C166.076 37.6399 173.536 35.2852 181.168 35.2852C186.236 35.281 191.255 36.3166 195.939 38.3328C200.622 40.349 204.877 43.3062 208.461 47.0352C212.045 50.7641 214.887 55.1918 216.825 60.0647C218.762 64.9377 219.758 70.1604 219.754 75.434Z" fill="#FED150"/>
<path d="M172.247 143.302L158.927 87.863H203.409L190.578 143.302L188.286 142.73L200.446 90.3107H161.921L174.508 142.73L172.247 143.302Z" fill="#2F375B"/>
<path d="M211.383 142.539H152.419V182.338H211.383V142.539Z" fill="#3A416D"/>
<path d="M216.729 151.79C216.729 152.633 216.407 153.441 215.834 154.037C215.261 154.634 214.484 154.969 213.674 154.969H148.723C147.912 154.969 147.135 154.634 146.562 154.037C145.989 153.441 145.667 152.633 145.667 151.79C145.667 150.947 145.989 150.138 146.562 149.542C147.135 148.946 147.912 148.611 148.723 148.611H213.613C214.423 148.611 215.2 148.946 215.773 149.542C216.346 150.138 216.668 150.947 216.668 151.79H216.729Z" fill="#2F375B"/>
<path d="M216.729 161.04C216.729 161.883 216.407 162.692 215.834 163.288C215.261 163.884 214.484 164.219 213.674 164.219H148.723C147.912 164.219 147.135 163.884 146.562 163.288C145.989 162.692 145.667 161.883 145.667 161.04C145.667 160.197 145.989 159.389 146.562 158.792C147.135 158.196 147.912 157.861 148.723 157.861H213.613C214.423 157.861 215.2 158.196 215.773 158.792C216.346 159.389 216.668 160.197 216.668 161.04H216.729Z" fill="#2F375B"/>
<path d="M216.729 170.291C216.729 171.134 216.407 171.942 215.834 172.538C215.261 173.135 214.484 173.47 213.674 173.47H148.723C147.912 173.47 147.135 173.135 146.562 172.538C145.989 171.942 145.667 171.134 145.667 170.291C145.667 169.448 145.989 168.639 146.562 168.043C147.135 167.447 147.912 167.112 148.723 167.112H213.613C214.423 167.112 215.2 167.447 215.773 168.043C216.346 168.639 216.668 169.448 216.668 170.291H216.729Z" fill="#2F375B"/>
<path d="M204.692 182.338C204.684 183.589 204.201 184.786 203.348 185.667C202.495 186.549 201.342 187.043 200.14 187.043H163.479C162.878 187.052 162.282 186.936 161.725 186.704C161.168 186.472 160.66 186.127 160.231 185.69C159.802 185.252 159.461 184.731 159.227 184.156C158.992 183.581 158.87 182.963 158.866 182.338C158.866 181.082 159.345 179.878 160.199 178.989C161.053 178.101 162.21 177.602 163.418 177.602H200.079C200.682 177.594 201.28 177.71 201.84 177.944C202.399 178.178 202.908 178.526 203.337 178.967C203.767 179.407 204.107 179.932 204.34 180.511C204.573 181.09 204.692 181.711 204.692 182.338Z" fill="#3A416D"/>
<path d="M216.729 142.539C216.729 143.382 216.407 144.191 215.834 144.787C215.261 145.383 214.484 145.718 213.674 145.718H148.723C147.912 145.718 147.135 145.383 146.562 144.787C145.989 144.191 145.667 143.382 145.667 142.539C145.667 141.696 145.989 140.888 146.562 140.291C147.135 139.695 147.912 139.36 148.723 139.36H213.613C214.423 139.36 215.2 139.695 215.773 140.291C216.346 140.888 216.668 141.696 216.668 142.539H216.729Z" fill="#2F375B"/>
<path d="M161.34 227.351C161.34 227.351 159.538 230.879 161.524 232.151C163.509 233.422 176.799 232.819 178.541 231.197C180.282 229.576 166.626 226.238 166.626 226.238L161.34 227.351Z" fill="#637EC1"/>
<path d="M130.697 175.758C121.96 179.795 112.367 191.207 102.499 202.524C97.1218 205.957 88.3537 209.104 82.5795 198.773C82.5795 198.773 81.9685 227.065 97.8551 231.324C97.8551 231.324 128.773 240.384 138.06 199.059C138.06 199.059 139.007 217.274 160.607 228.94C161.756 229.109 162.928 228.957 164.002 228.499C165.075 228.041 166.013 227.293 166.717 226.334C166.717 226.334 149.059 167.303 130.697 175.758Z" fill="#1C2D29"/>
<path d="M143.59 135.101C143.59 135.101 143.957 125.564 145.454 128.107C146.438 129.334 146.997 130.869 147.042 132.466C147.086 134.063 146.613 135.629 145.698 136.913L143.59 135.101Z" fill="#FF7053"/>
<path d="M106.929 158.656C105.462 159.228 103.324 162.185 106.44 163.774C111.389 166.285 130.881 164.982 134.15 162.757C137.419 160.532 146.126 136.499 146.126 136.499C146.035 136.178 145.884 135.878 145.68 135.618C145.476 135.358 145.225 135.144 144.94 134.986C144.655 134.829 144.343 134.733 144.022 134.704C143.701 134.674 143.377 134.712 143.071 134.815L128.681 153.888C121.336 154.972 114.07 156.565 106.929 158.656Z" fill="#0E7F6A"/>
<path d="M113.772 131.064C112.234 129.425 110.181 128.418 107.987 128.225C105.794 128.033 103.607 128.668 101.827 130.015C99.4529 132.129 97.625 134.827 96.5098 137.864C95.3945 140.901 95.0273 144.18 95.4416 147.403C97.3663 160.722 78.4552 182.37 96.9997 173.692C102.346 171.212 105.829 168.002 107.998 159.069C109.77 151.5 112.036 144.066 114.78 136.817C115.078 136.371 115.287 135.868 115.398 135.337C115.508 134.806 115.516 134.257 115.423 133.723C115.329 133.189 115.135 132.679 114.852 132.222C114.569 131.766 114.202 131.372 113.772 131.064Z" fill="#637EC1"/>
<path d="M97.4885 155.286C92.4476 159.196 81.9074 176.521 79.4023 208.055C78.8523 214.985 123.518 201.316 120.555 195.086C112.428 178.047 120.555 168.669 112.336 156.145C112.336 156.145 107.479 147.562 97.4885 155.286Z" fill="#75AA3C"/>
<path d="M104.821 141.745C105.776 144.815 105.601 148.146 104.332 151.09C102.896 153.347 112.336 161.74 112.275 158.592C112.275 154.524 110.503 151.981 112.856 147.53L104.821 141.745Z" fill="#FF7053"/>
<path d="M113.955 132.558C117.011 136.15 118.996 150.645 115.239 153.379C113.589 154.587 107.601 152.362 104.332 145.718C103.265 143.87 102.702 141.755 102.702 139.599C102.702 137.443 103.265 135.328 104.332 133.48C104.833 132.661 105.507 131.972 106.304 131.466C107.1 130.961 107.997 130.651 108.926 130.562C109.855 130.473 110.792 130.607 111.663 130.953C112.535 131.299 113.319 131.848 113.955 132.558Z" fill="#FF7053"/>
<path d="M116.308 134.942C116.308 136.881 116.308 138.121 112.214 137.135C107.112 136.086 107.601 139.901 107.967 141.236C109.128 145.146 103.018 142.221 104.424 146.862C105.829 151.504 102.041 147.53 101.613 146.862C100.741 144.725 100.359 142.407 100.497 140.089C100.635 137.772 101.289 135.52 102.407 133.511C105.982 127.313 115.911 128.997 116.308 134.942Z" fill="#637EC1"/>
<path d="M129.323 195.88C129.323 195.88 138.488 194.99 136.197 196.866C135.17 198.056 133.782 198.844 132.264 199.099C130.746 199.353 129.191 199.059 127.856 198.264L129.323 195.88Z" fill="#FF7053"/>
<path d="M102.01 161.199C101.307 159.768 98.1911 158.02 97.0913 161.39C95.3499 166.825 99.1687 186.566 101.735 189.84C104.301 193.115 128.314 198.709 128.314 198.709C128.866 198.439 129.298 197.958 129.519 197.367C129.741 196.776 129.736 196.118 129.506 195.53L109.342 183.228C107.375 175.723 104.926 168.363 102.01 161.199Z" fill="#0E7F6A"/>
</g>
<defs>
<clipPath id="clip0_84_355">
<rect width="321" height="238" fill="white"/>
</clipPath>
</defs>
</svg>
