<svg width="297" height="233" viewBox="0 0 297 233" fill="none" xmlns="http://www.w3.org/2000/svg">
<g clip-path="url(#clip0_84_496)">
<path d="M256.578 185.236C217.486 230.314 236.741 207.929 171.579 209.104C108.05 210.223 60.2866 236.33 33.2463 181.878C-48.2347 -107.308 370.945 19.5869 256.578 185.236Z" fill="#DAE1F3"/>
<path d="M296.889 217.974C304.009 238.037 -7.0371 238.037 0.110848 217.974C-7.00939 197.912 304.037 197.912 296.889 217.974Z" fill="#D0D0F7"/>
<path d="M202.747 174.211H180.139L189.975 214.421H212.582L202.747 174.211Z" fill="#3A416D"/>
<path d="M159.333 181.654H136.725V221.891H159.333V181.654Z" fill="#3A416D"/>
<path d="M103.147 214.421H80.5391L90.3744 174.211H112.982L103.147 214.421Z" fill="#3A416D"/>
<path d="M239.179 112.093C237.101 235.21 56.02 235.043 53.9421 112.093C56.02 -10.8568 237.129 -10.8288 239.179 112.093Z" fill="white"/>
<path d="M225.077 112.093C223.304 216.323 69.928 216.295 68.0718 112.093C69.8172 7.8906 223.304 7.8906 225.077 112.093Z" fill="#009B4C"/>
<path d="M213.136 112.988C211.64 201.465 81.4811 201.465 79.985 112.988C81.4811 24.5956 211.668 24.5956 213.136 112.988Z" fill="white"/>
<path d="M199.284 112.988C198.092 182.941 95.029 182.941 93.8376 112.988C95.029 42.9792 198.12 43.0071 199.284 112.988Z" fill="#009B4C"/>
<path d="M186.816 112.988C186.595 166.153 106.471 166.153 106.305 112.988C106.554 59.7959 186.595 59.8239 186.816 112.988Z" fill="white"/>
<path d="M174.377 112.988C174.903 149.364 118.246 149.364 118.772 112.988C118.246 76.5566 174.903 76.5566 174.377 112.988Z" fill="#009B4C"/>
<path d="M165.012 112.988C165.373 137.164 127.749 137.164 128.109 112.988C127.749 88.7845 165.373 88.7845 165.012 112.988Z" fill="white"/>
<path d="M36.9033 207.565L34.022 211.51L38.2609 213.161L41.6963 207.957L36.9033 207.565Z" fill="#FF7053"/>
<path d="M39.3691 211.902C38.9543 212.026 38.5194 212.066 38.0894 212.019C37.6594 211.971 37.243 211.839 36.8642 211.628C36.4854 211.417 36.1518 211.132 35.8826 210.79C35.6135 210.449 35.4143 210.056 35.2964 209.636C17.9807 220.381 67.6007 235.295 39.3691 211.902Z" fill="#6F87CF"/>
<path d="M44.9932 130.645C44.9932 130.645 36.183 134.086 46.4893 166.461L36.9033 207.565L39.6738 211.175C39.6738 211.175 65.3289 188.118 70.6206 168.671L71.5903 129.497L44.9932 130.645Z" fill="#FF7053"/>
<path d="M77.9071 213.917L77.1591 218.73L81.675 218.226L82.3399 212.014L77.9071 213.917Z" fill="#FF7053"/>
<path d="M82.0906 216.603C81.4726 217.225 80.6358 217.574 79.7633 217.574C78.8909 217.574 78.0541 217.225 77.4361 216.603C66.9635 234.091 117.803 224.214 82.0906 216.603Z" fill="#6F87CF"/>
<path d="M51.3655 135.597C51.3655 135.597 46.2677 146.006 70.1773 169.902L77.7132 215.176L81.8966 216.071C93.3943 181.514 92.9787 168.027 75.1366 125.804L51.3655 135.597Z" fill="#FF7053"/>
<path d="M41.6963 137.528C39.3712 146.768 40.1708 156.529 43.9681 165.257L40.3942 183.417C40.3942 183.417 66.7141 192.623 90.8731 185.712C90.8731 185.712 96.6081 167.132 78.0456 133.527L41.6963 137.528Z" fill="#1C2D29"/>
<path d="M84.6948 75.5494C84.6948 75.5494 87.4654 67.155 88.0749 69.9531C88.6783 71.2853 88.8178 72.7845 88.4707 74.2069C88.1237 75.6293 87.3104 76.8914 86.1632 77.7879L84.6948 75.5494Z" fill="#FF7053"/>
<path d="M45.5197 86.9378C34.1052 93.4294 67.3515 98.8298 69.3462 97.5427C73.031 96.4514 86.662 77.3682 86.662 77.3682C86.6584 77.0718 86.5966 76.7791 86.4801 76.5071C86.3637 76.235 86.1949 75.989 85.9835 75.7834C85.7722 75.5778 85.5225 75.4166 85.249 75.3092C84.9755 75.2017 84.6835 75.1503 84.3902 75.1577L66.4926 88.4208C59.5408 87.4686 52.5351 86.9733 45.5197 86.9378Z" fill="#D6134B"/>
<path d="M53.4988 76.0811C53.4988 76.0811 55.9091 81.9291 53.8312 85.7906C52.5014 88.2529 63.3341 96.0037 63.0017 92.7579C62.5584 88.5887 60.5082 86.0983 62.6138 81.2856L53.4988 76.0811Z" fill="#FF7053"/>
<path d="M62.3921 65.7C70.4543 73.5627 66.631 94.8285 53.3325 80.2502C48.4564 75.5494 51.9473 58.4808 62.3921 65.7Z" fill="#FF7053"/>
<path d="M65.6614 66.5676C69.6787 73.1991 54.5794 66.2318 61.0347 77.6202C61.0347 83.3843 55.272 76.7248 57.2114 81.3976C59.1507 86.0705 52.6954 81.5655 52.169 80.866C45.7968 72.2478 51.5318 56.2145 65.6614 66.5676Z" fill="#6F87CF"/>
<path d="M65.0519 89.2042C70.4267 93.1216 78.3227 101.18 78.0456 133.527C78.0456 140.634 37.7622 145.223 39.3968 138.311C47.3205 108.875 33.2463 77.3961 65.0519 89.2042Z" fill="#EE2255"/>
<path d="M59.0121 68.778C59.0121 68.778 57.5438 69.3097 59.9264 74.0385C62.3091 78.7673 60.813 84.0838 58.5412 88.8686C53.9698 95.9758 63.6389 110.638 53.3603 113.016C48.7889 112.709 39.757 107.728 38.5103 104.006C37.2635 100.285 39.3414 68.3023 54.9395 63.9373L59.0121 68.778Z" fill="#6F87CF"/>
<path d="M44.2729 8.56227L44.55 19.7828L21.0837 0L26.3754 14.6902L12.024 10.9687L36.2938 29.1565L27.7883 31.4789L46.0184 35.1165L120.518 99.9211L112.816 108.959L147.946 114.779L133.595 84.5874L125.893 93.6253L52.6122 29.884L44.2729 8.56227Z" fill="#FFB025"/>
<path d="M100.792 79.8307C100.792 79.8307 102.759 71.4363 103.562 73.8706C104.305 75.1244 104.605 76.5953 104.414 78.0436C104.223 79.4918 103.551 80.8319 102.509 81.8453L100.792 79.8307Z" fill="#FF7053"/>
<path d="M62.6692 94.4647C51.781 101.852 85.3875 104.538 87.2714 103.083C90.8454 101.684 102.897 81.5653 102.897 81.5653C102.834 80.966 102.54 80.4158 102.079 80.0336C101.617 79.6514 101.026 79.4679 100.431 79.5227L83.8083 94.2129C76.7642 93.8198 69.7021 93.904 62.6692 94.4647Z" fill="#D6134B"/>
</g>
<defs>
<clipPath id="clip0_84_496">
<rect width="297" height="233" fill="white"/>
</clipPath>
</defs>
</svg>
