<svg width="59" height="59" fill="none" xmlns="http://www.w3.org/2000/svg"><path fill-rule="evenodd" clip-rule="evenodd" d="M8 29.001C8 17.402 17.402 8 29.001 8a20.9 20.9 0 0110.02 2.54l5.83-5.83A28.866 28.866 0 0029.001 0C12.984 0 0 12.984 0 29.001c0 16.017 12.984 29 29.001 29 16.017 0 29-12.983 29-29a28.88 28.88 0 00-3.037-12.936l-6.1 6.1A20.971 20.971 0 0150.002 29c0 11.598-9.403 21-21.001 21C17.402 50.002 8 40.6 8 29.002z" fill="#E3E3E3"/><path d="M36 36L22 22m0 14l14-14" stroke="#F53232" stroke-width="8" stroke-linecap="round" stroke-linejoin="round"/></svg>