<svg width="59" height="58" fill="none" xmlns="http://www.w3.org/2000/svg"><path fill-rule="evenodd" clip-rule="evenodd" d="M8 29C8 17.401 17.402 7.999 29.001 7.999a20.9 20.9 0 0110.02 2.54l5.83-5.83A28.866 28.866 0 0029.001 0C12.984-.001 0 12.983 0 29s12.984 29.001 29.001 29.001c16.017 0 29-12.984 29-29.001a28.88 28.88 0 00-3.037-12.936l-6.1 6.1A20.971 20.971 0 0150.002 29c0 11.599-9.403 21.001-21.001 21.001C17.402 50.001 8 40.599 8 29z" fill="#F2F2F2"/><path d="M19.001 26.642L26.281 34 52 8" stroke="#64D97E" stroke-width="8" stroke-linecap="round" stroke-linejoin="round"/></svg>